<svg version="1.1" xmlns="http://www.w3.org/2000/svg" xmlns:xlink="http://www.w3.org/1999/xlink" width="978" height="572">
<defs>
<clipPath id="HOflIHEUnEKk">
<path fill="none" stroke="none" d=" M 0 0 L 978 0 L 978 572 L 0 572 L 0 0 Z"/>
</clipPath>
</defs>
<g transform="scale(1,1)" clip-path="url(#HOflIHEUnEKk)">
<g>
<rect fill="rgb(255,255,255)" stroke="none" x="0" y="0" width="978" height="572" fill-opacity="1"/>
<path fill="none" stroke="rgb(0,0,0)" paint-order="fill stroke markers" d=" M 289.824893819348 69.64851845379928 L 158.50979422040137 297.09294276014157 L 289.82489381934806 524.5373670664839 L 552.4550930172413 524.5373670664839 L 683.7701926161881 297.0929427601416 L 552.4550930172414 69.64851845379934 Z" stroke-opacity="0.6980392156862745" stroke-linecap="round" stroke-linejoin="round" stroke-miterlimit="10" stroke-width="2.5"/>
<path fill="none" stroke="rgb(0,0,0)" paint-order="fill stroke markers" d=" M 276.94600635719996 213.8425055148935 C 306.6885229297362 265.3580553634854 361.6549602732222 297.09294276014157 421.1399934182946 297.09294276014157 C 480.62502656336704 297.09294276014157 535.591463906853 265.3580553634854 565.3339804793892 213.84250551489356" stroke-opacity="0.6980392156862745" stroke-linecap="round" stroke-linejoin="round" stroke-miterlimit="10" stroke-width="2.5"/>
<path fill="none" stroke="rgb(0,0,0)" paint-order="fill stroke markers" d=" M 421.1399934182946 130.59206826964532 C 391.3974768457583 182.10761811823724 391.3974768457583 245.57739291154968 421.13999341829447 297.0929427601416 C 450.88250999083067 348.6084926087336 505.8489473343167 380.34338000538986 565.3339804793891 380.3433800053899" stroke-opacity="0.6980392156862745" stroke-linecap="round" stroke-linejoin="round" stroke-miterlimit="10" stroke-width="2.5"/>
<path fill="none" stroke="rgb(0,0,0)" paint-order="fill stroke markers" d=" M 565.3339804793892 380.3433800053898 C 535.591463906853 328.82783015679786 480.62502656336704 297.0929427601417 421.13999341829464 297.0929427601417 C 361.6549602732222 297.0929427601417 306.6885229297362 328.82783015679786 276.9460063572001 380.3433800053898" stroke-opacity="0.6980392156862745" stroke-linecap="round" stroke-linejoin="round" stroke-miterlimit="10" stroke-width="2.5"/>
<path fill="none" stroke="rgb(0,0,0)" paint-order="fill stroke markers" d=" M 276.9460063571999 380.3433800053897 C 336.43103950227237 380.3433800053897 391.39747684575843 348.6084926087334 421.13999341829464 297.0929427601415 C 450.88250999083084 245.57739291154962 450.8825099908307 182.1076181182371 421.13999341829447 130.59206826964524" stroke-opacity="0.6980392156862745" stroke-linecap="round" stroke-linejoin="round" stroke-miterlimit="10" stroke-width="2.5"/>
<path fill="none" stroke="rgb(0,0,0)" paint-order="fill stroke markers" d=" M 421.1399934182947 463.59381725063764 C 450.88250999083084 412.0782674020457 450.8825099908308 348.6084926087333 421.1399934182945 297.09294276014145 C 391.39747684575826 245.5773929115496 336.4310395022723 213.84250551489342 276.94600635719985 213.84250551489345" stroke-opacity="0.6980392156862745" stroke-linecap="round" stroke-linejoin="round" stroke-miterlimit="10" stroke-width="2.5"/><path fill="none" stroke="rgb(0,0,0)" paint-order="fill stroke markers" d=" M 565.3339804793893 213.8425055148936 C 505.8489473343169 213.84250551489356 450.88250999083084 245.57739291154977 421.1399934182946 297.0929427601416 C 391.3974768457583 348.6084926087335 391.3974768457583 412.078267402046 421.1399934182945 463.59381725063787" stroke-opacity="0.6980392156862745" stroke-linecap="round" stroke-linejoin="round" stroke-miterlimit="10" stroke-width="2.5"/><path fill="none" stroke="rgb(0,0,0)" paint-order="fill stroke markers" d=" M 360.1964436024483 297.09294276014157 C 360.1964436024483 343.07088966743754 322.9239532644961 380.3433800053897 276.94600635719996 380.3433800053897 C 230.96805944990376 380.3433800053897 193.69556911195156 343.07088966743754 193.69556911195156 297.09294276014157 C 193.69556911195156 251.11499585284554 230.96805944990376 213.84250551489345 276.94600635719996 213.84250551489345 C 322.9239532644961 213.84250551489345 360.1964436024483 251.11499585284554 360.1964436024483 297.09294276014157 Z" stroke-opacity="0.6980392156862745" stroke-linecap="round" stroke-linejoin="round" stroke-miterlimit="10" stroke-width="2.5"/><path fill="none" stroke="rgb(0,0,0)" paint-order="fill stroke markers" d=" M 432.29343713299573 172.2172868922694 C 432.29343713299573 218.19523379956541 395.0209467950435 255.46772413751754 349.0429998877473 255.46772413751754 C 303.0650529804511 255.46772413751754 265.7925626424989 218.19523379956541 265.7925626424989 172.2172868922694 C 265.7925626424989 126.23933998497338 303.0650529804511 88.96684964702129 349.0429998877473 88.96684964702129 C 395.0209467950435 88.96684964702129 432.29343713299573 126.23933998497338 432.29343713299573 172.2172868922694 Z" stroke-opacity="0.6980392156862745" stroke-linecap="round" stroke-linejoin="round" stroke-miterlimit="10" stroke-width="2.5"/><path fill="none" stroke="rgb(0,0,0)" paint-order="fill stroke markers" d=" M 576.4874241940904 172.21728689226947 C 576.4874241940904 218.1952337995655 539.2149338561383 255.46772413751765 493.236986948842 255.46772413751765 C 447.2590400415458 255.46772413751765 409.98654970359354 218.1952337995655 409.98654970359354 172.21728689226947 C 409.98654970359354 126.23933998497341 447.2590400415458 88.96684964702129 493.236986948842 88.96684964702129 C 539.2149338561383 88.96684964702129 576.4874241940904 126.23933998497341 576.4874241940904 172.21728689226947 Z" stroke-opacity="0.6980392156862745" stroke-linecap="round" stroke-linejoin="round" stroke-miterlimit="10" stroke-width="2.5"/><path fill="none" stroke="rgb(0,0,0)" paint-order="fill stroke markers" d=" M 648.5844177246377 297.0929427601417 C 648.5844177246377 343.07088966743765 611.3119273866855 380.3433800053898 565.3339804793893 380.3433800053898 C 519.3560335720931 380.3433800053898 482.0835432341409 343.07088966743765 482.0835432341409 297.0929427601417 C 482.0835432341409 251.11499585284565 519.3560335720931 213.84250551489356 565.3339804793893 213.84250551489356 C 611.3119273866855 213.84250551489356 648.5844177246377 251.11499585284565 648.5844177246377 297.0929427601417 Z" stroke-opacity="0.6980392156862745" stroke-linecap="round" stroke-linejoin="round" stroke-miterlimit="10" stroke-width="2.5"/><path fill="none" stroke="rgb(0,0,0)" paint-order="fill stroke markers" d=" M 576.4874241940903 421.9685986280138 C 576.4874241940903 467.94654553530984 539.2149338561381 505.2190358732619 493.23698694884195 505.2190358732619 C 447.2590400415458 505.2190358732619 409.9865497035936 467.94654553530984 409.9865497035936 421.9685986280138 C 409.9865497035936 375.99065172071784 447.2590400415458 338.71816138276574 493.23698694884195 338.71816138276574 C 539.2149338561381 338.71816138276574 576.4874241940903 375.99065172071784 576.4874241940903 421.9685986280138 Z" stroke-opacity="0.6980392156862745" stroke-linecap="round" stroke-linejoin="round" stroke-miterlimit="10" stroke-width="2.5"/><path fill="none" stroke="rgb(0,0,0)" paint-order="fill stroke markers" d=" M 432.29343713299573 421.96859862801375 C 432.29343713299573 467.9465455353097 395.0209467950435 505.2190358732619 349.0429998877473 505.2190358732619 C 303.0650529804511 505.2190358732619 265.7925626424989 467.9465455353097 265.7925626424989 421.96859862801375 C 265.7925626424989 375.9906517207177 303.0650529804511 338.71816138276563 349.0429998877473 338.71816138276563 C 395.0209467950435 338.71816138276563 432.29343713299573 375.9906517207177 432.29343713299573 421.96859862801375 Z" stroke-opacity="0.6980392156862745" stroke-linecap="round" stroke-linejoin="round" stroke-miterlimit="10" stroke-width="2.5"/><path fill="none" stroke="rgb(0,0,0)" paint-order="fill stroke markers" d=" M 315.58266874364415 297.09294276014157 C 315.58266874364415 330.75113592398657 288.297312091643 358.0364925759876 254.63911892779785 358.0364925759876 C 220.9809257639527 358.0364925759876 193.69556911195158 330.75113592398657 193.69556911195158 297.09294276014157 C 193.69556911195158 263.4347495962965 220.9809257639527 236.1493929442955 254.63911892779785 236.1493929442955 C 288.297312091643 236.1493929442955 315.58266874364415 263.4347495962965 315.58266874364415 297.09294276014157 Z" stroke-opacity="0.6980392156862745" stroke-linecap="round" stroke-linejoin="round" stroke-miterlimit="10" stroke-width="2.5"/><path fill="none" stroke="rgb(0,0,0)" paint-order="fill stroke markers" d=" M 398.8331059888925 152.89895569904746 C 398.8331059888925 186.5571488628925 371.54774933689134 213.8425055148935 337.88955617304623 213.8425055148935 C 304.23136300920106 213.8425055148935 276.94600635719996 186.5571488628925 276.94600635719996 152.89895569904746 C 276.94600635719996 119.24076253520242 304.23136300920106 91.9554058832014 337.88955617304623 91.9554058832014 C 371.54774933689134 91.9554058832014 398.8331059888925 119.24076253520242 398.8331059888925 152.89895569904746 Z" stroke-opacity="0.6980392156862745" stroke-linecap="round" stroke-linejoin="round" stroke-miterlimit="10" stroke-width="2.5"/><path fill="none" stroke="rgb(0,0,0)" paint-order="fill stroke markers" d=" M 565.3339804793893 152.8989556990475 C 565.3339804793893 186.5571488628925 538.0486238273883 213.8425055148935 504.39043066354316 213.8425055148935 C 470.732237499698 213.8425055148935 443.4468808476969 186.5571488628925 443.4468808476969 152.8989556990475 C 443.4468808476969 119.24076253520246 470.732237499698 91.95540588320145 504.39043066354316 91.95540588320145 C 538.0486238273883 91.95540588320145 565.3339804793893 119.24076253520246 565.3339804793893 152.8989556990475 Z" stroke-opacity="0.6980392156862745" stroke-linecap="round" stroke-linejoin="round" stroke-miterlimit="10" stroke-width="2.5"/><path fill="none" stroke="rgb(0,0,0)" paint-order="fill stroke markers" d=" M 648.5844177246377 297.09294276014157 C 648.5844177246377 330.75113592398657 621.2990610726365 358.0364925759876 587.6408679087914 358.0364925759876 C 553.9826747449463 358.0364925759876 526.6973180929451 330.75113592398657 526.6973180929451 297.09294276014157 C 526.6973180929451 263.4347495962965 553.9826747449463 236.1493929442955 587.6408679087914 236.1493929442955 C 621.2990610726365 236.1493929442955 648.5844177246377 263.4347495962965 648.5844177246377 297.09294276014157 Z" stroke-opacity="0.6980392156862745" stroke-linecap="round" stroke-linejoin="round" stroke-miterlimit="10" stroke-width="2.5"/><path fill="none" stroke="rgb(0,0,0)" paint-order="fill stroke markers" d=" M 565.3339804793892 441.28692982123573 C 565.3339804793892 474.94512298508073 538.048623827388 502.2304796370817 504.390430663543 502.2304796370817 C 470.7322374996979 502.2304796370817 443.4468808476968 474.94512298508073 443.4468808476968 441.28692982123573 C 443.4468808476968 407.62873665739073 470.7322374996979 380.34338000538975 504.390430663543 380.34338000538975 C 538.048623827388 380.34338000538975 565.3339804793892 407.62873665739073 565.3339804793892 441.28692982123573 Z" stroke-opacity="0.6980392156862745" stroke-linecap="round" stroke-linejoin="round" stroke-miterlimit="10" stroke-width="2.5"/><path fill="none" stroke="rgb(0,0,0)" paint-order="fill stroke markers" d=" M 398.83310598889244 441.2869298212357 C 398.83310598889244 474.9451229850807 371.54774933689134 502.2304796370817 337.88955617304623 502.2304796370817 C 304.23136300920106 502.2304796370817 276.94600635719996 474.9451229850807 276.94600635719996 441.2869298212357 C 276.94600635719996 407.6287366573907 304.23136300920106 380.34338000538963 337.88955617304623 380.34338000538963 C 371.54774933689134 380.34338000538963 398.83310598889244 407.6287366573907 398.83310598889244 441.2869298212357 Z" stroke-opacity="0.6980392156862745" stroke-linecap="round" stroke-linejoin="round" stroke-miterlimit="10" stroke-width="2.5"/><path fill="none" stroke="rgb(0,0,0)" paint-order="fill stroke markers" d=" M 648.5844177246377 297.09294276014157 C 648.5844177246377 422.7070297385786 546.7540803967321 524.5373670664839 421.13999341829464 524.5373670664839 C 295.5259064398572 524.5373670664839 193.69556911195158 422.7070297385786 193.69556911195158 297.09294276014157 C 193.69556911195158 171.4788557817045 295.5259064398572 69.64851845379928 421.13999341829464 69.64851845379928 C 546.7540803967321 69.64851845379928 648.5844177246377 171.4788557817045 648.5844177246377 297.09294276014157 Z" stroke-opacity="0.6980392156862745" stroke-linecap="round" stroke-linejoin="round" stroke-miterlimit="10" stroke-width="4"/><path fill="none" stroke="rgb(0,0,0)" paint-order="fill stroke markers" d=" M 683.7701926161878 297.09294276014157 C 683.7701926161878 442.1395966221609 566.1866472803144 559.7231419580339 421.13999341829464 559.7231419580339 C 276.0933395562747 559.7231419580339 158.50979422040137 442.1395966221609 158.50979422040137 297.09294276014157 C 158.50979422040137 152.04628889812216 276.0933395562747 34.462743562249216 421.13999341829464 34.462743562249216 C 566.1866472803144 34.462743562249216 683.7701926161878 152.04628889812216 683.7701926161878 297.09294276014157 Z" stroke-opacity="0.6980392156862745" stroke-linecap="round" stroke-linejoin="round" stroke-miterlimit="10" stroke-width="4.5"/><path fill="none" stroke="rgb(0,0,0)" paint-order="fill stroke markers" d=" M 289.824893819348 69.64851845379928 L 158.50979422040137 297.09294276014157" stroke-opacity="0.6980392156862745" stroke-linecap="round" stroke-linejoin="round" stroke-miterlimit="10" stroke-width="2.5"/><path fill="none" stroke="rgb(0,0,0)" paint-order="fill stroke markers" d=" M 158.50979422040137 297.09294276014157 L 289.82489381934806 524.5373670664839" stroke-opacity="0.6980392156862745" stroke-linecap="round" stroke-linejoin="round" stroke-miterlimit="10" stroke-width="2.5"/><path fill="none" stroke="rgb(0,0,0)" paint-order="fill stroke markers" d=" M 289.82489381934806 524.5373670664839 L 552.4550930172413 524.5373670664839" stroke-opacity="0.6980392156862745" stroke-linecap="round" stroke-linejoin="round" stroke-miterlimit="10" stroke-width="2.5"/><path fill="none" stroke="rgb(0,0,0)" paint-order="fill stroke markers" d=" M 552.4550930172413 524.5373670664839 L 683.7701926161881 297.0929427601416" stroke-opacity="0.6980392156862745" stroke-linecap="round" stroke-linejoin="round" stroke-miterlimit="10" stroke-width="2.5"/><path fill="none" stroke="rgb(0,0,0)" paint-order="fill stroke markers" d=" M 683.7701926161881 297.0929427601416 L 552.4550930172414 69.64851845379934" stroke-opacity="0.6980392156862745" stroke-linecap="round" stroke-linejoin="round" stroke-miterlimit="10" stroke-width="2.5"/><path fill="none" stroke="rgb(0,0,0)" paint-order="fill stroke markers" d=" M 552.4550930172414 69.64851845379934 L 289.824893819348 69.64851845379928" stroke-opacity="0.6980392156862745" stroke-linecap="round" stroke-linejoin="round" stroke-miterlimit="10" stroke-width="2.5"/></g></g></svg>